<svg width="400" height="400" viewBox="0 0 400 400" fill="none" xmlns="http://www.w3.org/2000/svg">
  <!-- Cream background circle -->
  <circle cx="200" cy="200" r="190" fill="#FAF8F5"/>

  <!-- Broken ceramic pieces in charcoal -->
  <path d="M 200 60 Q 280 100 320 180 L 310 190 Q 270 110 200 75 Z" fill="#2B2B2B"/>
  <path d="M 320 180 Q 340 260 300 330 L 290 325 Q 328 258 310 190 Z" fill="#2B2B2B"/>
  <path d="M 300 330 Q 230 360 150 340 L 155 330 Q 232 350 290 325 Z" fill="#2B2B2B"/>
  <path d="M 150 340 Q 90 300 80 220 L 90 215 Q 100 292 155 330 Z" fill="#2B2B2B"/>
  <path d="M 80 220 Q 85 140 140 90 L 145 98 Q 93 146 90 215 Z" fill="#2B2B2B"/>
  <path d="M 140 90 Q 180 65 200 60 L 200 75 Q 182 80 145 98 Z" fill="#2B2B2B"/>

  <!-- Gold kintsugi seams -->
  <path d="M 200 60 Q 280 100 320 180" stroke="#D4AF37" stroke-width="3" fill="none"/>
  <path d="M 320 180 Q 340 260 300 330" stroke="#D4AF37" stroke-width="3" fill="none"/>
  <path d="M 300 330 Q 230 360 150 340" stroke="#D4AF37" stroke-width="3" fill="none"/>
  <path d="M 150 340 Q 90 300 80 220" stroke="#D4AF37" stroke-width="3" fill="none"/>
  <path d="M 80 220 Q 85 140 140 90" stroke="#D4AF37" stroke-width="3" fill="none"/>
  <path d="M 140 90 Q 180 65 200 60" stroke="#D4AF37" stroke-width="3" fill="none"/>

  <!-- Additional gold cracks for detail -->
  <path d="M 200 75 L 155 130" stroke="#D4AF37" stroke-width="2" fill="none"/>
  <path d="M 310 190 L 250 200" stroke="#D4AF37" stroke-width="2" fill="none"/>
  <path d="M 290 325 L 220 280" stroke="#D4AF37" stroke-width="2" fill="none"/>
</svg>